<svg xmlns="http://www.w3.org/2000/svg" width="256" height="256" viewBox="0 0 100 100"><rect width="100" height="100" rx="20" fill="#332a6f"></rect><path fill="#fff" d="M50.95 87.48L50.95 87.48Q44.11 87.48 39.52 85.06Q34.92 82.63 32.59 77.54Q30.25 72.45 29.98 64.36L29.98 64.36L43.75 62.29Q43.84 66.97 44.60 69.84Q45.36 72.72 46.76 73.98Q48.16 75.25 50.13 75.25L50.13 75.25Q52.66 75.25 53.42 73.53Q54.19 71.83 54.19 69.94L54.19 69.94Q54.19 65.44 52.02 62.33Q49.86 59.23 46.17 56.08L46.17 56.08L39.88 50.59Q35.73 47.08 32.90 42.62Q30.07 38.17 30.07 31.60L30.07 31.60Q30.07 22.33 35.55 17.42Q41.05 12.52 50.50 12.52L50.50 12.52Q56.34 12.52 59.90 14.50Q63.45 16.48 65.30 19.67Q67.14 22.87 67.82 26.42Q68.50 29.98 68.59 33.22L68.59 33.22L54.72 34.93Q54.63 31.69 54.32 29.30Q54.00 26.92 53.02 25.61Q52.02 24.31 49.95 24.31L49.95 24.31Q47.70 24.31 46.67 26.20Q45.63 28.09 45.63 29.98L45.63 29.98Q45.63 34.03 47.57 36.59Q49.50 39.16 52.66 41.95L52.66 41.95L58.69 47.26Q63.45 51.30 66.74 56.44Q70.03 61.56 70.03 69.13L70.03 69.13Q70.03 74.25 67.69 78.44Q65.34 82.63 61.07 85.06Q56.80 87.48 50.95 87.48Z"></path></svg>