<svg xmlns="http://www.w3.org/2000/svg" width="3367" height="889" viewBox="0 0 3367 889">
  <defs>
    <style>
      .cls-1, .cls-2, .cls-3, .cls-4 {
        fill-rule: evenodd;
      }

      .cls-2 {
        fill: #00eaff;
      }

      .cls-3, .cls-4 {
        stroke: #000;
        stroke-linejoin: round;
      }

      .cls-3 {
        stroke-width: 27px;
      }

      .cls-4 {
        stroke-width: 6px;
      }
    </style>
  </defs>
  <path id="Scroll_copie" data-name="Scroll copie" class="cls-1" d="M244.505,400.905q-22.753,0-39.191-.977A202.731,202.731,0,0,1,177.5,396.64q-11.376-2.308-18.307-5.866a29.773,29.773,0,0,1-10.753-8.8,29.011,29.011,0,0,1-5.065-12.174,90.034,90.034,0,0,1-1.244-15.819q0-14.4,4.976-23.994T164.88,314.7q12.8-5.686,34.836-8.087t56.164-2.4h34.125q25.593,0,43.011,1.155T361.1,311.06q10.665,4.533,15.286,13.6t4.621,25.061H415.13A117.136,117.136,0,0,0,413,326.434a53.153,53.153,0,0,0-7.554-18.751,49.221,49.221,0,0,0-14.574-14.218q-9.156-5.954-23.017-9.953a185.391,185.391,0,0,0-33.058-5.866q-19.2-1.866-44.789-1.866H255.88q-31.284,0-54.387,2.311t-39.546,6.842q-16.442,4.533-26.927,11.287a58.434,58.434,0,0,0-16.529,15.374,51.493,51.493,0,0,0-8.265,19.284,113.166,113.166,0,0,0-2.221,23.105,160.6,160.6,0,0,0,1.422,22.128,51.981,51.981,0,0,0,6.131,18.573,46.389,46.389,0,0,0,13.775,14.841q9.065,6.49,24.172,10.842t37.413,6.665a530.172,530.172,0,0,0,53.587,2.311h46.922q28.434,0,46.033,2.416t27.282,8.142q9.685,5.728,12.975,15.391t3.288,24.161q0,14.5-4.8,24.61T359.677,520.44q-11.732,6.265-31.459,9.125t-49.588,2.864h-45.5q-25.594,0-42.923-1.172t-27.993-5.777q-10.665-4.6-15.286-13.81t-4.621-25.452H108.182a118.463,118.463,0,0,0,2.133,23.372,53.084,53.084,0,0,0,7.554,18.84,51.569,51.569,0,0,0,14.485,14.4q9.064,6.132,22.928,10.131a190.326,190.326,0,0,0,33.059,5.954q19.194,1.953,44.789,1.955h45.5a419.882,419.882,0,0,0,49.676-2.566q21.237-2.566,36.347-7.52t24.883-12.036A58.561,58.561,0,0,0,405,522.637a59.256,59.256,0,0,0,7.909-19.909,116.38,116.38,0,0,0,2.222-23.275,188.615,188.615,0,0,0-1.333-23.209,57.687,57.687,0,0,0-5.777-19.367A49.29,49.29,0,0,0,395.4,421.436q-8.177-6.781-21.95-11.336t-33.858-6.873a427.677,427.677,0,0,0-48.166-2.322H244.505Zm198.007,87.482a97.9,97.9,0,0,0,7.548,27.871,58.716,58.716,0,0,0,14.566,19.895q9.149,8.064,23.089,12.994t33.125,7.081a408.008,408.008,0,0,0,44.762,2.15q34.149,0,56.205-4.266t34.861-13.063a45.949,45.949,0,0,0,17.785-22.484q4.982-13.683,4.982-32.347H645.31q0,6.831-.356,12.724a30.023,30.023,0,0,1-2.58,10.759,23.208,23.208,0,0,1-7.028,8.625q-4.808,3.757-13.7,6.321a130.322,130.322,0,0,1-22.5,3.927q-13.614,1.367-33.539,1.366-22.774,0-38.341-1.58t-25.71-5.274q-10.144-3.69-15.658-9.667a35.749,35.749,0,0,1-8.006-14.674,86.364,86.364,0,0,1-2.936-20.387q-0.446-11.688-.444-26.8,0-15.463.444-27.33a88.3,88.3,0,0,1,2.936-20.65,36.462,36.462,0,0,1,8.006-14.849q5.516-6.066,15.658-9.667t25.71-5.185q15.567-1.583,38.341-1.583,19.927,0,33.539,1.244a129.488,129.488,0,0,1,22.5,3.732q8.894,2.492,13.7,6.132a22.945,22.945,0,0,1,7.028,8.265,27.524,27.524,0,0,1,2.58,10.309q0.354,5.69.356,12.263h34.125q0-18.3-4.982-31.548t-17.785-21.861q-12.806-8.619-34.861-12.8T565.6,343.852a413.809,413.809,0,0,0-44.762,2.117q-19.182,2.115-33.125,7.051t-23.089,12.955a57.9,57.9,0,0,0-14.566,20.006,100.205,100.205,0,0,0-7.548,28.2,289.709,289.709,0,0,0-2.13,37.369A282.3,282.3,0,0,0,442.512,488.387Zm472.613-72.019a132.266,132.266,0,0,0-3.288-31.1A46.418,46.418,0,0,0,899.218,362.6q-9.332-9.151-26.038-13.863t-43.368-4.71q-23.286,0-38.835,3.91t-25.327,9.687q-9.777,5.778-14.574,12.441a45.29,45.29,0,0,0-6.576,12.175V349.718H710.375v204.75H744.5V427.743a81.079,81.079,0,0,1,2.932-22.572,36.611,36.611,0,0,1,11.109-17.418q8.173-7.285,22.572-11.286t37.324-4q23.462,0,37.058,2.044t20.528,7.109a22.109,22.109,0,0,1,8.8,13.508,100.79,100.79,0,0,1,1.866,21.239h28.438Zm9.256,86.11q6.753,20.961,21.684,33.325t38.746,17.468q23.818,5.106,57.939,5.107t57.94-5.107q23.82-5.107,38.75-17.468t21.68-33.325q6.765-20.963,6.76-52.679,0-31.2-6.76-51.649t-21.68-32.436q-14.925-11.989-38.75-16.835t-57.94-4.849q-34.125,0-57.939,4.849t-38.746,16.835q-14.93,11.988-21.684,32.436T917.627,449.8Q917.627,481.517,924.381,502.478ZM953.8,418.954q2.042-12.739,6.4-21.354a36.287,36.287,0,0,1,11.464-13.618,51.465,51.465,0,0,1,17.151-7.56,122.194,122.194,0,0,1,23.46-3.252q13.425-.7,30.48-0.7,17.07,0,30.48.7a122.16,122.16,0,0,1,23.46,3.252,51.506,51.506,0,0,1,17.16,7.56,36.359,36.359,0,0,1,11.46,13.618q4.35,8.615,6.4,21.354a198.838,198.838,0,0,1,2.04,30.845,208.7,208.7,0,0,1-2.04,31.548,78.62,78.62,0,0,1-6.4,22.055,37.239,37.239,0,0,1-11.46,14.147,53.146,53.146,0,0,1-17.16,8,112.072,112.072,0,0,1-23.46,3.6q-13.41.791-30.48,0.791-19.9,0-34.39-1.23a108.832,108.832,0,0,1-24.615-4.568,45.114,45.114,0,0,1-16.352-8.965,37.453,37.453,0,0,1-9.687-14.585A82.324,82.324,0,0,1,953,479.15q-1.246-12.48-1.245-29.351A198.414,198.414,0,0,1,953.8,418.954Zm250.7,135.514h34.13v-273H1204.5v273Zm87.82,0h34.12v-273h-34.12v273Z"/>
  <path class="cls-2" d="M1444.55,56.168L2007.69,207.06a20,20,0,0,1,14.14,24.5L1870.94,794.69a20,20,0,0,1-24.49,14.142L1283.31,657.94a20,20,0,0,1-14.14-24.5L1420.06,70.311A20,20,0,0,1,1444.55,56.168Z"/>
  <path id="B_copie" data-name="B copie" class="cls-3" d="M1693.95,554.468a359.226,359.226,0,0,0,43.99-2.311q18.39-2.307,31.1-7.02t20.36-11.82a49.107,49.107,0,0,0,11.73-16.529,74.132,74.132,0,0,0,5.42-21.239,233.17,233.17,0,0,0,1.33-26.038,77.722,77.722,0,0,0-2.49-20.706,62.929,62.929,0,0,0-6.49-15.641,47.772,47.772,0,0,0-9.06-11.2,60.013,60.013,0,0,0-10.4-7.554,65.031,65.031,0,0,0-28.44-7.82,45.264,45.264,0,0,0,22.75-7.643,48.127,48.127,0,0,0,8.36-7.2A45.306,45.306,0,0,0,1789.4,381a66.724,66.724,0,0,0,5.15-15.108,92.509,92.509,0,0,0,1.95-20.084,122.053,122.053,0,0,0-2.84-27.726,39.948,39.948,0,0,0-11.29-20.173q-8.43-8.085-24.08-12.264t-41.23-4.176H1489.38v273h204.57ZM1523.5,526.03V423.655h159.08q19.9,0,34.48.622a194.48,194.48,0,0,1,24.7,2.4,60.407,60.407,0,0,1,16.35,4.887,24.942,24.942,0,0,1,9.69,8.176,30.866,30.866,0,0,1,4.71,12.442,105.5,105.5,0,0,1,1.24,17.329,163.866,163.866,0,0,1-1.24,21.861,44.318,44.318,0,0,1-4.71,15.374,26.911,26.911,0,0,1-9.69,10.131q-6.21,3.824-16.35,5.865a162.042,162.042,0,0,1-24.7,2.666q-14.58.625-34.48,0.622H1523.5Zm0-130.812V309.9h182.18a239.343,239.343,0,0,1,28,1.333q10.92,1.334,17.32,5.154a20.07,20.07,0,0,1,8.89,10.931q2.49,7.112,2.49,18.484a136.955,136.955,0,0,1-1.07,18.4,37.082,37.082,0,0,1-4.17,13.241,25.081,25.081,0,0,1-8.62,8.976,45.574,45.574,0,0,1-14.4,5.421,137.507,137.507,0,0,1-21.51,2.666q-12.615.713-30.03,0.711H1523.5Z"/>
  <path id="tween_copie" data-name="tween copie" class="cls-4" d="M2085.63,463.468a230.722,230.722,0,0,1-1.24,26.038,70.633,70.633,0,0,1-4,17.507,27.064,27.064,0,0,1-7.2,10.753,28.743,28.743,0,0,1-10.75,5.687,61.454,61.454,0,0,1-14.76,2.222q-8.445.359-19.1,0.355-13.515,0-22.84-.708t-15.02-4.965q-5.685-4.254-8.27-13.475-2.565-9.219-2.57-26.244V378.155h128.5V349.718h-128.5V294.087h-34.13v55.631h-42.12v28.437h42.12V480.68q0,21.286,4.27,35.475t14.04,22.705q9.765,8.516,25.59,12.061t39.1,3.547q24,0,40.35-4.444t26.39-14.929q10.05-10.485,14.31-27.994t4.27-43.633h-28.44Zm344.59,90.7h-45.54l-62.37-167.479-62.71,168.1h-46.35l-79.62-205.072h39.81L2236,528.874l68.26-179.156h35.08l67.41,178.842,63.28-178.842h39.81Zm260.18,0.925q21.765-3.287,35.1-10.487t19.11-18.839q5.775-11.64,5.77-28.171h-34.12q0,10.11-3.64,16.426t-12.71,9.856q-9.06,3.542-24.44,4.8t-38.84,1.263a424.518,424.518,0,0,1-43.01-1.819q-17.415-1.817-28.08-8.578t-15.28-21.4q-4.635-14.643-4.63-37.519h201.91l2.84-11.375a256.23,256.23,0,0,0-1.68-30.037,90.045,90.045,0,0,0-6.22-24.794,83.731,83.731,0,0,0-12.45-20.173,67.011,67.011,0,0,0-20.61-16.352q-12.72-6.751-30.57-10.308t-42.22-3.555q-34.125,0-57.94,5.154t-38.74,18.129q-14.94,12.976-21.69,34.925t-6.75,55.542q0,29.327,6.75,48.7t21.69,30.926q14.925,11.556,38.74,16.263t57.94,4.71Q2668.625,558.378,2690.4,555.09Zm-17.33-179.779q15.1,2.846,24.71,10.487a44.433,44.433,0,0,1,14.04,19.462q4.44,11.822,4.44,32.614H2545.63a150.5,150.5,0,0,1,2.05-26.749q2.04-11.106,6.4-17.24a40.495,40.495,0,0,1,11.46-10.664,55.9,55.9,0,0,1,17.15-6.932,132.037,132.037,0,0,1,23.46-3.11q13.425-.709,30.48-0.711Q2657.96,372.468,2673.07,375.311ZM2954.53,555.09q21.765-3.287,35.1-10.487t19.11-18.839q5.76-11.64,5.77-28.171h-34.12q0,10.11-3.65,16.426t-12.7,9.856q-9.075,3.542-24.44,4.8t-38.84,1.263a424.518,424.518,0,0,1-43.01-1.819q-17.415-1.817-28.08-8.578t-15.29-21.4q-4.62-14.643-4.62-37.519h201.91l2.84-11.375a254.018,254.018,0,0,0-1.69-30.037,89.69,89.69,0,0,0-6.22-24.794,83.373,83.373,0,0,0-12.44-20.173,67.057,67.057,0,0,0-20.62-16.352q-12.7-6.751-30.57-10.308-17.85-3.553-42.21-3.555-34.125,0-57.94,5.154t-38.75,18.129q-14.925,12.976-21.68,34.925t-6.75,55.542q0,29.327,6.75,48.7t21.68,30.926q14.94,11.556,38.75,16.263t57.94,4.71Q2932.755,558.378,2954.53,555.09ZM2937.2,375.311q15.105,2.846,24.7,10.487a44.276,44.276,0,0,1,14.04,19.462q4.44,11.822,4.45,32.614H2809.76a149.563,149.563,0,0,1,2.05-26.749q2.04-11.106,6.39-17.24a40.672,40.672,0,0,1,11.47-10.664,55.8,55.8,0,0,1,17.15-6.932,131.781,131.781,0,0,1,23.46-3.11q13.425-.709,30.48-0.711Q2922.09,372.468,2937.2,375.311Zm347.13,179.157,0.17-113.75q0-15.639-1.24-28.882a99.707,99.707,0,0,0-5.06-23.994,60.158,60.158,0,0,0-10.76-18.929,54.8,54.8,0,0,0-18.39-13.686q-11.475-5.506-27.91-8.353t-39.19-2.844q-7.815,0-17.33.533t-19.64,2.044a176.949,176.949,0,0,0-20.26,4.266,98.224,98.224,0,0,0-18.84,7.2,71.077,71.077,0,0,0-15.64,10.753,42.985,42.985,0,0,0-10.66,15.019V349.718h-34.13v204.75h34.13V429.343a67.541,67.541,0,0,1,3.82-23.284q3.825-10.485,13.95-17.951t27.82-11.552q17.67-4.087,45.41-4.088,25.59,0,41.23,3.554t24.17,11.553q8.535,8,11.38,21.062t2.84,32.081v113.75h34.13Z"/>
</svg>
